<mxfile host="app.diagrams.net" modified="2023-05-19T09:22:00.656Z" agent="Mozilla/5.0 (Windows NT 10.0; Win64; x64) AppleWebKit/537.36 (KHTML, like Gecko) Chrome/113.0.0.0 Safari/537.36" etag="eQoNdd6c9t6C2qCyPO5T" version="21.3.2" type="device" pages="3">
  <diagram name="perfi-MOVIL" id="S6WkfXy8WBQHkO8pz846">
    <mxGraphModel dx="1687" dy="936" grid="1" gridSize="10" guides="1" tooltips="1" connect="1" arrows="1" fold="1" page="1" pageScale="1" pageWidth="660" pageHeight="1169" math="0" shadow="0">
      <root>
        <mxCell id="0" />
        <mxCell id="1" parent="0" />
        <mxCell id="JiKnMTtMNSroHooT13fF-1" value="" style="rounded=0;whiteSpace=wrap;html=1;" vertex="1" parent="1">
          <mxGeometry width="660" height="90" as="geometry" />
        </mxCell>
        <mxCell id="JiKnMTtMNSroHooT13fF-2" value="" style="rounded=0;whiteSpace=wrap;html=1;" vertex="1" parent="1">
          <mxGeometry y="90" width="660" height="870" as="geometry" />
        </mxCell>
        <mxCell id="JiKnMTtMNSroHooT13fF-3" value="" style="rounded=0;whiteSpace=wrap;html=1;" vertex="1" parent="1">
          <mxGeometry y="960" width="660" height="209" as="geometry" />
        </mxCell>
        <mxCell id="JiKnMTtMNSroHooT13fF-4" value="LOGO" style="rounded=0;whiteSpace=wrap;html=1;" vertex="1" parent="1">
          <mxGeometry x="20" y="15" width="120" height="60" as="geometry" />
        </mxCell>
        <mxCell id="JiKnMTtMNSroHooT13fF-5" value="MENU HAMBURGUESA" style="rounded=0;whiteSpace=wrap;html=1;" vertex="1" parent="1">
          <mxGeometry x="510" y="15" width="110" height="60" as="geometry" />
        </mxCell>
        <mxCell id="JiKnMTtMNSroHooT13fF-9" value="SECCIÓN 1" style="rounded=0;whiteSpace=wrap;html=1;" vertex="1" parent="1">
          <mxGeometry x="30" y="980" width="120" height="160" as="geometry" />
        </mxCell>
        <mxCell id="JiKnMTtMNSroHooT13fF-10" value="SECCIÓN 2" style="rounded=0;whiteSpace=wrap;html=1;" vertex="1" parent="1">
          <mxGeometry x="210" y="980" width="120" height="160" as="geometry" />
        </mxCell>
        <mxCell id="JiKnMTtMNSroHooT13fF-11" value="INFO EXTRA" style="rounded=0;whiteSpace=wrap;html=1;" vertex="1" parent="1">
          <mxGeometry x="350" y="1080" width="270" height="60" as="geometry" />
        </mxCell>
        <mxCell id="JiKnMTtMNSroHooT13fF-13" value="TÍTULO PERFIL" style="rounded=1;whiteSpace=wrap;html=1;" vertex="1" parent="1">
          <mxGeometry x="100" y="180" width="470" height="60" as="geometry" />
        </mxCell>
        <mxCell id="JiKnMTtMNSroHooT13fF-17" value="NOMBRE DE EMPRESA" style="rounded=0;whiteSpace=wrap;html=1;" vertex="1" parent="1">
          <mxGeometry x="170" y="15" width="180" height="60" as="geometry" />
        </mxCell>
        <mxCell id="JiKnMTtMNSroHooT13fF-18" value="TAB DINÁMICOS" style="rounded=0;whiteSpace=wrap;html=1;" vertex="1" parent="1">
          <mxGeometry x="100" y="300" width="480" height="210" as="geometry" />
        </mxCell>
        <mxCell id="JiKnMTtMNSroHooT13fF-6" value="DATOS PERSONALES" style="rounded=1;whiteSpace=wrap;html=1;" vertex="1" parent="1">
          <mxGeometry x="100" y="300" width="120" height="60" as="geometry" />
        </mxCell>
        <mxCell id="JiKnMTtMNSroHooT13fF-19" value="CAMBIAR SUSCRIPCIÓN" style="rounded=1;whiteSpace=wrap;html=1;" vertex="1" parent="1">
          <mxGeometry x="220" y="300" width="120" height="60" as="geometry" />
        </mxCell>
        <mxCell id="JiKnMTtMNSroHooT13fF-20" value="RUTINAS" style="rounded=1;whiteSpace=wrap;html=1;" vertex="1" parent="1">
          <mxGeometry x="340" y="300" width="120" height="60" as="geometry" />
        </mxCell>
        <mxCell id="JiKnMTtMNSroHooT13fF-21" value="PLANNINGS" style="rounded=1;whiteSpace=wrap;html=1;" vertex="1" parent="1">
          <mxGeometry x="460" y="300" width="120" height="60" as="geometry" />
        </mxCell>
        <mxCell id="JiKnMTtMNSroHooT13fF-22" value="TAB DINÁMICOS" style="rounded=0;whiteSpace=wrap;html=1;" vertex="1" parent="1">
          <mxGeometry x="100" y="560" width="480" height="250" as="geometry" />
        </mxCell>
        <mxCell id="JiKnMTtMNSroHooT13fF-23" value="ENVIAR SOLICITUD" style="rounded=1;whiteSpace=wrap;html=1;" vertex="1" parent="1">
          <mxGeometry x="100" y="560" width="230" height="60" as="geometry" />
        </mxCell>
        <mxCell id="JiKnMTtMNSroHooT13fF-26" value="VER SOLICITUDES" style="rounded=1;whiteSpace=wrap;html=1;" vertex="1" parent="1">
          <mxGeometry x="330" y="560" width="250" height="60" as="geometry" />
        </mxCell>
      </root>
    </mxGraphModel>
  </diagram>
  <diagram id="aJ4JDUKsc6IWlIOuTx4j" name="perfil-TABLET">
    <mxGraphModel dx="2049" dy="1137" grid="1" gridSize="10" guides="1" tooltips="1" connect="1" arrows="1" fold="1" page="1" pageScale="1" pageWidth="660" pageHeight="1169" math="0" shadow="0">
      <root>
        <mxCell id="0" />
        <mxCell id="1" parent="0" />
        <mxCell id="LcZbdoUAUI2Z0u_O02TD-1" value="" style="rounded=0;whiteSpace=wrap;html=1;" vertex="1" parent="1">
          <mxGeometry width="850" height="90" as="geometry" />
        </mxCell>
        <mxCell id="LcZbdoUAUI2Z0u_O02TD-2" value="" style="rounded=0;whiteSpace=wrap;html=1;" vertex="1" parent="1">
          <mxGeometry y="90" width="850" height="870" as="geometry" />
        </mxCell>
        <mxCell id="LcZbdoUAUI2Z0u_O02TD-3" value="" style="rounded=0;whiteSpace=wrap;html=1;" vertex="1" parent="1">
          <mxGeometry y="960" width="850" height="209" as="geometry" />
        </mxCell>
        <mxCell id="LcZbdoUAUI2Z0u_O02TD-4" value="LOGO" style="rounded=0;whiteSpace=wrap;html=1;" vertex="1" parent="1">
          <mxGeometry x="20" y="15" width="120" height="60" as="geometry" />
        </mxCell>
        <mxCell id="LcZbdoUAUI2Z0u_O02TD-5" value="MENU HAMBURGUESA" style="rounded=0;whiteSpace=wrap;html=1;" vertex="1" parent="1">
          <mxGeometry x="690" y="15" width="110" height="60" as="geometry" />
        </mxCell>
        <mxCell id="LcZbdoUAUI2Z0u_O02TD-6" value="SECCIÓN 1" style="rounded=0;whiteSpace=wrap;html=1;" vertex="1" parent="1">
          <mxGeometry x="30" y="980" width="170" height="160" as="geometry" />
        </mxCell>
        <mxCell id="LcZbdoUAUI2Z0u_O02TD-7" value="SECCIÓN 2" style="rounded=0;whiteSpace=wrap;html=1;" vertex="1" parent="1">
          <mxGeometry x="290" y="980" width="175" height="160" as="geometry" />
        </mxCell>
        <mxCell id="LcZbdoUAUI2Z0u_O02TD-8" value="INFO EXTRA" style="rounded=0;whiteSpace=wrap;html=1;" vertex="1" parent="1">
          <mxGeometry x="550" y="1080" width="270" height="60" as="geometry" />
        </mxCell>
        <mxCell id="LcZbdoUAUI2Z0u_O02TD-9" value="NOMBRE DE EMPRESA" style="rounded=0;whiteSpace=wrap;html=1;" vertex="1" parent="1">
          <mxGeometry x="170" y="15" width="180" height="60" as="geometry" />
        </mxCell>
        <mxCell id="HJOoF59qN9Ws_LPYwGw8-1" value="TÍTULO PERFIL" style="rounded=1;whiteSpace=wrap;html=1;" vertex="1" parent="1">
          <mxGeometry x="190" y="190" width="470" height="60" as="geometry" />
        </mxCell>
        <mxCell id="HJOoF59qN9Ws_LPYwGw8-2" value="TAB DINÁMICOS" style="rounded=0;whiteSpace=wrap;html=1;" vertex="1" parent="1">
          <mxGeometry x="182.5" y="310" width="480" height="210" as="geometry" />
        </mxCell>
        <mxCell id="HJOoF59qN9Ws_LPYwGw8-3" value="DATOS PERSONALES" style="rounded=1;whiteSpace=wrap;html=1;" vertex="1" parent="1">
          <mxGeometry x="182.5" y="310" width="120" height="60" as="geometry" />
        </mxCell>
        <mxCell id="HJOoF59qN9Ws_LPYwGw8-4" value="CAMBIAR SUSCRIPCIÓN" style="rounded=1;whiteSpace=wrap;html=1;" vertex="1" parent="1">
          <mxGeometry x="302.5" y="310" width="120" height="60" as="geometry" />
        </mxCell>
        <mxCell id="HJOoF59qN9Ws_LPYwGw8-5" value="RUTINAS" style="rounded=1;whiteSpace=wrap;html=1;" vertex="1" parent="1">
          <mxGeometry x="422.5" y="310" width="120" height="60" as="geometry" />
        </mxCell>
        <mxCell id="HJOoF59qN9Ws_LPYwGw8-6" value="PLANNINGS" style="rounded=1;whiteSpace=wrap;html=1;" vertex="1" parent="1">
          <mxGeometry x="542.5" y="310" width="120" height="60" as="geometry" />
        </mxCell>
        <mxCell id="HJOoF59qN9Ws_LPYwGw8-7" value="TAB DINÁMICOS" style="rounded=0;whiteSpace=wrap;html=1;" vertex="1" parent="1">
          <mxGeometry x="185" y="570" width="480" height="250" as="geometry" />
        </mxCell>
        <mxCell id="HJOoF59qN9Ws_LPYwGw8-8" value="ENVIAR SOLICITUD" style="rounded=1;whiteSpace=wrap;html=1;" vertex="1" parent="1">
          <mxGeometry x="185" y="570" width="230" height="60" as="geometry" />
        </mxCell>
        <mxCell id="HJOoF59qN9Ws_LPYwGw8-9" value="VER SOLICITUDES" style="rounded=1;whiteSpace=wrap;html=1;" vertex="1" parent="1">
          <mxGeometry x="415" y="570" width="250" height="60" as="geometry" />
        </mxCell>
      </root>
    </mxGraphModel>
  </diagram>
  <diagram id="fHCtj0af2XTPoVqdTHgM" name="perfil-ESCRITORIO">
    <mxGraphModel dx="3187" dy="1769" grid="1" gridSize="10" guides="1" tooltips="1" connect="1" arrows="1" fold="1" page="1" pageScale="1" pageWidth="660" pageHeight="1169" math="0" shadow="0">
      <root>
        <mxCell id="0" />
        <mxCell id="1" parent="0" />
        <mxCell id="1IO0bysax7kQs5HtlrxJ-1" value="" style="rounded=0;whiteSpace=wrap;html=1;" vertex="1" parent="1">
          <mxGeometry width="1580" height="90" as="geometry" />
        </mxCell>
        <mxCell id="1IO0bysax7kQs5HtlrxJ-2" value="&lt;font style=&quot;font-size: 18px;&quot;&gt;&lt;br&gt;&lt;/font&gt;" style="rounded=0;whiteSpace=wrap;html=1;" vertex="1" parent="1">
          <mxGeometry y="90" width="1580" height="1070" as="geometry" />
        </mxCell>
        <mxCell id="1IO0bysax7kQs5HtlrxJ-3" value="" style="rounded=0;whiteSpace=wrap;html=1;" vertex="1" parent="1">
          <mxGeometry y="1160" width="1580" height="209" as="geometry" />
        </mxCell>
        <mxCell id="1IO0bysax7kQs5HtlrxJ-4" value="LOGO" style="rounded=0;whiteSpace=wrap;html=1;" vertex="1" parent="1">
          <mxGeometry x="20" y="15" width="120" height="60" as="geometry" />
        </mxCell>
        <mxCell id="1IO0bysax7kQs5HtlrxJ-5" value="MENU" style="rounded=0;whiteSpace=wrap;html=1;" vertex="1" parent="1">
          <mxGeometry x="390" y="15" width="910" height="60" as="geometry" />
        </mxCell>
        <mxCell id="1IO0bysax7kQs5HtlrxJ-6" value="SECCIÓN 1" style="rounded=0;whiteSpace=wrap;html=1;" vertex="1" parent="1">
          <mxGeometry x="90" y="1180" width="170" height="160" as="geometry" />
        </mxCell>
        <mxCell id="1IO0bysax7kQs5HtlrxJ-7" value="SECCIÓN 2" style="rounded=0;whiteSpace=wrap;html=1;" vertex="1" parent="1">
          <mxGeometry x="330" y="1180" width="175" height="160" as="geometry" />
        </mxCell>
        <mxCell id="1IO0bysax7kQs5HtlrxJ-8" value="INFO EXTRA" style="rounded=0;whiteSpace=wrap;html=1;" vertex="1" parent="1">
          <mxGeometry x="1250" y="1260" width="270" height="70" as="geometry" />
        </mxCell>
        <mxCell id="1IO0bysax7kQs5HtlrxJ-9" value="NOMBRE DE EMPRESA" style="rounded=0;whiteSpace=wrap;html=1;" vertex="1" parent="1">
          <mxGeometry x="170" y="15" width="180" height="60" as="geometry" />
        </mxCell>
        <mxCell id="YPqEADjIgMsMAJ_OmX_p-1" value="TÍTULO PERFIL" style="rounded=1;whiteSpace=wrap;html=1;" vertex="1" parent="1">
          <mxGeometry x="460" y="170" width="762.5" height="80" as="geometry" />
        </mxCell>
        <mxCell id="YPqEADjIgMsMAJ_OmX_p-2" value="TAB DINÁMICOS" style="rounded=0;whiteSpace=wrap;html=1;" vertex="1" parent="1">
          <mxGeometry x="476.25" y="360" width="730" height="320" as="geometry" />
        </mxCell>
        <mxCell id="YPqEADjIgMsMAJ_OmX_p-3" value="DATOS PERSONALES" style="rounded=1;whiteSpace=wrap;html=1;" vertex="1" parent="1">
          <mxGeometry x="476.25" y="360" width="183.75" height="60" as="geometry" />
        </mxCell>
        <mxCell id="YPqEADjIgMsMAJ_OmX_p-4" value="CAMBIAR SUSCRIPCIÓN" style="rounded=1;whiteSpace=wrap;html=1;" vertex="1" parent="1">
          <mxGeometry x="660" y="360" width="180" height="60" as="geometry" />
        </mxCell>
        <mxCell id="YPqEADjIgMsMAJ_OmX_p-5" value="RUTINAS" style="rounded=1;whiteSpace=wrap;html=1;" vertex="1" parent="1">
          <mxGeometry x="840" y="360" width="190" height="60" as="geometry" />
        </mxCell>
        <mxCell id="YPqEADjIgMsMAJ_OmX_p-6" value="PLANNINGS" style="rounded=1;whiteSpace=wrap;html=1;" vertex="1" parent="1">
          <mxGeometry x="1030" y="360" width="176.25" height="60" as="geometry" />
        </mxCell>
        <mxCell id="YPqEADjIgMsMAJ_OmX_p-10" value="TAB DINÁMICOS" style="rounded=0;whiteSpace=wrap;html=1;" vertex="1" parent="1">
          <mxGeometry x="476.25" y="770" width="730" height="320" as="geometry" />
        </mxCell>
        <mxCell id="YPqEADjIgMsMAJ_OmX_p-8" value="ENVIAR SOLICITUD" style="rounded=1;whiteSpace=wrap;html=1;" vertex="1" parent="1">
          <mxGeometry x="476.25" y="770" width="363.75" height="80" as="geometry" />
        </mxCell>
        <mxCell id="YPqEADjIgMsMAJ_OmX_p-9" value="VER SOLICITUDES" style="rounded=1;whiteSpace=wrap;html=1;" vertex="1" parent="1">
          <mxGeometry x="840" y="770" width="366.25" height="80" as="geometry" />
        </mxCell>
      </root>
    </mxGraphModel>
  </diagram>
</mxfile>
